<svg xmlns="http://www.w3.org/2000/svg" viewBox="0 0 800 600" width="800" height="600">
  <rect width="800" height="600" fill="#7D4B3C" />
  <g transform="translate(400, 300)">
    <circle cx="0" cy="0" r="150" fill="#DFAF5D" opacity="0.8" />
    <g transform="translate(-75, -75)">
      <!-- Coffee Package -->
      <rect x="0" y="0" width="150" height="200" rx="10" ry="10" fill="#C2A887" />
      <rect x="10" y="10" width="130" height="180" rx="5" ry="5" fill="#562F23" />
      <rect x="20" y="20" width="110" height="160" rx="5" ry="5" fill="#DFAF5D" />
      <text x="75" y="70" text-anchor="middle" font-family="Arial" font-size="18" fill="#562F23">PREMIUM</text>
      <text x="75" y="100" text-anchor="middle" font-family="Arial" font-size="24" fill="#562F23">COFFEE</text>
      <text x="75" y="130" text-anchor="middle" font-family="Arial" font-size="16" fill="#562F23">BEANS</text>
      <path d="M40,150 C40,140 110,140 110,150 L110,160 C110,170 40,170 40,160 Z" fill="#562F23" />
    </g>
    <g transform="translate(0, 50)">
      <!-- Coffee Beans -->
      <ellipse cx="-20" cy="0" rx="15" ry="10" fill="#562F23" transform="rotate(30)" />
      <ellipse cx="10" cy="10" rx="15" ry="10" fill="#562F23" transform="rotate(-20)" />
      <ellipse cx="-10" cy="-20" rx="15" ry="10" fill="#562F23" transform="rotate(10)" />
    </g>
    <text x="0" y="-150" text-anchor="middle" font-family="Arial" font-size="24" fill="white">Packaging That Protects</text>
  </g>
</svg>