<svg xmlns="http://www.w3.org/2000/svg" viewBox="0 0 800 600" width="800" height="600">
  <rect width="800" height="600" fill="#7D4B3C" />
  <g transform="translate(400, 300)">
    <circle cx="0" cy="0" r="150" fill="#DFAF5D" opacity="0.8" />
    <g transform="translate(-75, -75)">
      <path d="M50,0 C77.6,0 100,22.4 100,50 C100,77.6 77.6,100 50,100 C22.4,100 0,77.6 0,50 C0,22.4 22.4,0 50,0 Z" fill="#C2A887" />
      <path d="M50,20 C66.5,20 80,33.5 80,50 C80,66.5 66.5,80 50,80 C33.5,80 20,66.5 20,50 C20,33.5 33.5,20 50,20 Z" fill="#562F23" />
      <path d="M50,35 C58.3,35 65,41.7 65,50 C65,58.3 58.3,65 50,65 C41.7,65 35,58.3 35,50 C35,41.7 41.7,35 50,35 Z" fill="#DFAF5D" />
    </g>
    <g transform="translate(25, -75)">
      <path d="M50,0 C77.6,0 100,22.4 100,50 C100,77.6 77.6,100 50,100 C22.4,100 0,77.6 0,50 C0,22.4 22.4,0 50,0 Z" fill="#C2A887" />
      <path d="M50,20 C66.5,20 80,33.5 80,50 C80,66.5 66.5,80 50,80 C33.5,80 20,66.5 20,50 C20,33.5 33.5,20 50,20 Z" fill="#562F23" />
      <path d="M50,35 C58.3,35 65,41.7 65,50 C65,58.3 58.3,65 50,65 C41.7,65 35,58.3 35,50 C35,41.7 41.7,35 50,35 Z" fill="#DFAF5D" />
    </g>
    <g transform="translate(-25, 25)">
      <path d="M50,0 C77.6,0 100,22.4 100,50 C100,77.6 77.6,100 50,100 C22.4,100 0,77.6 0,50 C0,22.4 22.4,0 50,0 Z" fill="#C2A887" />
      <path d="M50,20 C66.5,20 80,33.5 80,50 C80,66.5 66.5,80 50,80 C33.5,80 20,66.5 20,50 C20,33.5 33.5,20 50,20 Z" fill="#562F23" />
      <path d="M50,35 C58.3,35 65,41.7 65,50 C65,58.3 58.3,65 50,65 C41.7,65 35,58.3 35,50 C35,41.7 41.7,35 50,35 Z" fill="#DFAF5D" />
    </g>
    <text x="0" y="-150" text-anchor="middle" font-family="Arial" font-size="24" fill="white">On-the-Ground Sourcing</text>
  </g>
</svg>